<svg width="324" height="192" viewBox="0 0 324 192" fill="none" xmlns="http://www.w3.org/2000/svg">
<mask id="mask0_48_369" style="mask-type:luminance" maskUnits="userSpaceOnUse" x="109" y="7" width="216" height="103">
<path d="M109.398 7.96149H324V109.085H109.398V7.96149Z" fill="white"/>
</mask>
<g mask="url(#mask0_48_369)">
<path d="M118.757 107.815C121.686 107.877 125.232 107.977 129.333 108.038C133.403 108.138 138.028 108.238 143.038 108.3C148.049 108.4 153.522 108.462 159.28 108.531C165.046 108.592 171.097 108.662 177.41 108.692C180.57 108.723 183.762 108.723 186.984 108.762C190.206 108.792 193.49 108.792 196.781 108.792C203.387 108.792 210.093 108.823 216.769 108.823C223.475 108.823 230.174 108.792 236.749 108.792C238.414 108.792 240.041 108.792 241.667 108.792C243.294 108.792 244.92 108.762 246.554 108.762C249.776 108.723 252.96 108.723 256.12 108.692C262.403 108.662 268.492 108.592 274.251 108.531C277.118 108.5 279.947 108.462 282.653 108.431C285.351 108.4 287.987 108.331 290.492 108.3C295.51 108.238 300.128 108.138 304.198 108.038C308.268 107.946 311.844 107.877 314.774 107.815C317.703 107.746 320.015 107.646 321.58 107.615C323.145 107.585 323.985 107.554 323.985 107.554C323.985 107.554 323.145 107.515 321.58 107.485C320.015 107.454 317.703 107.354 314.774 107.292C311.844 107.223 308.299 107.131 304.198 107.062C300.128 106.962 295.51 106.869 290.492 106.8C287.987 106.769 285.351 106.7 282.653 106.669C279.947 106.638 277.149 106.608 274.251 106.569C268.492 106.508 262.434 106.438 256.12 106.408C252.96 106.377 249.776 106.377 246.554 106.346C244.92 106.346 243.294 106.315 241.667 106.315C240.364 106.315 239.031 106.315 237.728 106.315C234.406 102.231 230.829 98.5153 226.921 95.4846C250 89.6769 262.565 74.3769 264.06 58.1C267.452 59.4 269.595 57.4769 269.595 57.4769C269.595 57.4769 264.977 54.1846 263.281 46.7153C258.857 26.4538 236.788 7.96149 196.55 7.96149C148.18 7.96149 126.858 35.5923 126.858 55.5538C126.858 66.6769 133.665 75.5153 146.26 75.5153C154.624 75.5153 165.47 70.5615 165.47 60.2538C165.47 53.8923 160.783 48.2769 154.824 48.2769C148.18 48.2769 144.341 52.8769 144.341 58.0615C144.341 60.4461 145.351 62.3692 145.351 62.3692C145.351 62.3692 146.553 60.9 148.735 60.9C155.634 60.9 155.603 69.9384 147.008 69.9384C137.927 69.9384 133.048 63.123 133.048 53.6307C133.048 36.4076 149.875 11.8076 187.893 11.8076C219.081 11.8076 236.333 28.4769 241.05 46.8769C237.921 46.0307 235.909 47.8846 235.909 47.8846C235.909 47.8846 242.515 51.6384 242.515 58.1C242.515 72.3538 234.961 85.8923 221.032 91.5307C215.497 88.4692 209.346 86.5769 202.285 86.5769C185.45 86.5769 185.712 97.8923 205.7 97.8923C209.993 97.8923 214.063 97.7 217.84 97.1461C220.253 99.6923 222.396 102.792 224.416 106.277C221.841 106.277 219.243 106.277 216.669 106.246C209.962 106.246 203.256 106.277 196.681 106.277C193.721 106.277 190.761 106.315 187.862 106.315V48.4076C187.862 34.7769 197.629 27.4307 197.629 27.4307C197.629 27.4307 192.649 26.6846 186.036 30.4C184.024 28.2846 181.904 27.0769 177.51 25.7076C173.085 27.0769 171.004 28.2846 168.985 30.4C162.34 26.6538 157.391 27.4307 157.391 27.4307C157.391 27.4307 167.158 34.7769 167.158 48.4076V71.6384C167.158 83.4461 161.168 87.4538 161.168 87.4538C161.168 87.4538 163.581 89.3846 167.158 87.3923V106.508C164.429 106.538 161.754 106.569 159.149 106.608C153.39 106.669 147.956 106.738 142.907 106.831C137.897 106.9 133.272 107 129.202 107.092C125.139 107.192 121.555 107.254 118.626 107.323C115.696 107.385 113.384 107.485 111.827 107.515C110.262 107.554 109.414 107.585 109.414 107.585C109.414 107.585 110.262 107.615 111.827 107.646C113.515 107.685 115.827 107.746 118.757 107.815ZM205.761 94.3692C192.449 94.3692 192.418 89.7384 202.023 89.7384C206.548 89.7384 210.448 91.1461 213.971 93.6846C211.427 94.1077 208.66 94.3692 205.761 94.3692Z" fill="black"/>
</g>
<mask id="mask1_48_369" style="mask-type:luminance" maskUnits="userSpaceOnUse" x="109" y="136" width="216" height="50">
<path d="M109.398 136.654H324V185.192H109.398V136.654Z" fill="white"/>
</mask>
<g mask="url(#mask1_48_369)">
<path d="M314.771 138.708C311.842 138.639 308.296 138.539 304.196 138.477C300.125 138.377 295.508 138.277 290.49 138.215C287.985 138.185 285.348 138.115 282.651 138.085C279.945 138.054 277.147 138.023 274.248 137.985C268.49 137.923 262.431 137.854 256.118 137.823C252.958 137.792 249.774 137.792 246.552 137.762C244.918 137.762 243.291 137.723 241.665 137.723C240.038 137.723 238.381 137.723 236.747 137.723C230.141 137.723 223.435 137.692 216.767 137.692C210.061 137.692 203.354 137.723 196.779 137.723C193.487 137.723 190.204 137.762 186.982 137.762C183.759 137.792 180.568 137.792 177.408 137.823C171.125 137.854 165.043 137.923 159.278 137.985C153.519 138.054 148.085 138.115 143.036 138.215C138.026 138.277 133.4 138.377 129.33 138.477C125.268 138.577 121.684 138.639 118.755 138.708C115.825 138.769 113.513 138.869 111.948 138.9C110.391 138.931 109.543 138.969 109.543 138.969C109.543 138.969 110.391 139 111.948 139.031C113.513 139.062 115.825 139.162 118.755 139.223C121.684 139.292 125.23 139.392 129.33 139.454C133.4 139.554 138.026 139.654 143.036 139.715C148.046 139.815 153.519 139.877 159.278 139.946C161.721 139.977 164.226 140.008 166.77 140.039C164.781 158.377 157.096 171.977 145.056 171.977C140.854 171.977 137.632 169.239 137.632 165.162C137.632 162.031 140.138 160.269 142.612 160.269C144.824 160.269 146.196 161.9 146.196 161.9C146.196 161.9 147.206 160.4 147.206 158.046C147.206 152.892 143.429 148.2 136.006 148.2C130.309 148.2 125.168 153.092 125.168 158.962C125.168 168.162 133.138 174.977 147.43 174.977C166.832 174.977 177.577 158.046 177.577 158.046C186.496 166.792 197.172 164.015 197.172 164.015C197.172 164.015 190.396 157.623 188.415 140.239C191.144 140.269 193.911 140.269 196.71 140.269C203.323 140.269 210.03 140.3 216.697 140.3C223.404 140.3 230.11 140.269 236.685 140.269C237.464 140.269 238.219 140.269 238.998 140.269C247.847 163.169 257.814 185.192 278.581 185.192C293.751 185.192 308.266 174.585 308.266 159.677C308.266 153.969 304.843 147.777 298.823 147.777C294.336 147.777 291.4 151.554 291.4 155.7C291.4 161.015 296.842 163.169 296.842 163.169C296.934 161.408 298.044 159.323 300.156 159.323C302.207 159.323 303.448 161.508 303.448 163.3C303.448 167.446 299.478 170.969 293.458 170.969C278.773 170.969 269.076 156.969 259.148 140.108C264.32 140.077 269.33 140.008 274.148 139.946C277.016 139.908 279.845 139.877 282.55 139.846C285.248 139.815 287.885 139.746 290.397 139.715C295.408 139.654 300.033 139.554 304.095 139.454C308.165 139.354 311.75 139.292 314.679 139.223C317.608 139.162 319.921 139.062 321.478 139.031C323.043 139 323.89 138.969 323.89 138.969C323.89 138.969 323.043 138.931 321.478 138.9C320.013 138.869 317.701 138.8 314.771 138.708Z" fill="black"/>
</g>
<path d="M173.309 167.477L177.61 182.385L181.772 167.477L177.61 161.569L173.309 167.477Z" fill="black"/>
<mask id="mask2_48_369" style="mask-type:luminance" maskUnits="userSpaceOnUse" x="0" y="12" width="159" height="100">
<path d="M0 12.5923H158.361V111.054H0V12.5923Z" fill="white"/>
</mask>
<g mask="url(#mask2_48_369)">
<path d="M6.77568 109.692C8.94175 109.754 11.5857 109.846 14.5766 109.915C17.606 110.008 21.0131 110.1 24.7054 110.162C28.4286 110.262 32.437 110.323 36.6766 110.385C40.9393 110.454 45.3948 110.515 50.0429 110.546C52.3709 110.577 54.7297 110.577 57.1115 110.608C59.5012 110.639 61.9216 110.639 64.342 110.639C69.2137 110.639 74.1471 110.669 79.1113 110.669C84.0524 110.669 89.0166 110.639 93.8883 110.639C95.0985 110.639 96.3088 110.639 97.519 110.639C98.7292 110.639 99.9394 110.608 101.111 110.608C103.501 110.577 105.859 110.577 108.18 110.546C112.828 110.515 117.322 110.454 121.554 110.385C123.689 110.354 125.755 110.323 127.759 110.292C129.771 110.262 131.713 110.2 133.556 110.162C137.279 110.1 140.655 110.008 143.685 109.915C146.706 109.815 149.319 109.754 151.478 109.692C153.644 109.631 155.332 109.531 156.511 109.5C157.66 109.469 158.292 109.439 158.292 109.439C158.292 109.439 157.691 109.408 156.511 109.377C155.363 109.339 153.644 109.246 151.478 109.185C149.319 109.123 146.675 109.023 143.685 108.962C140.655 108.869 137.248 108.769 133.556 108.708C131.713 108.677 129.771 108.615 127.759 108.585C125.755 108.554 123.689 108.523 121.554 108.485C118.054 108.423 114.424 108.362 110.631 108.331C132.793 101.4 145.08 82.8462 145.781 63.8924C149.027 65.0308 151.1 63.1924 151.1 63.1924C151.1 63.1924 146.321 59.9308 145.211 53.477C141.295 32.1462 122.032 12.7693 90.5737 12.7693C63.5789 12.7693 50.0121 23.6616 50.0121 23.6616C50.0121 23.6616 40.1145 15.9385 27.2492 15.9385C15.278 15.9385 7.13027 22.5539 7.13027 31.477C7.13027 37.2078 12.1561 41.9231 17.7293 41.9231C24.9906 41.9231 28.6213 37.4308 28.6213 32.3616C28.6213 30.1154 27.6346 28.6308 27.6346 28.6308C27.6346 28.6308 26.2934 30.2154 24.1967 30.2154C21.7454 30.2154 19.325 28.5001 19.325 25.4616C19.325 21.5078 22.4777 18.8462 26.5169 18.8462C33.5238 18.8462 39.9218 27.9001 39.9218 42.1154V74.0539C39.9218 85.9539 34.0634 89.9385 34.0634 89.9385C34.0634 89.9385 36.4839 91.8078 39.9218 89.8462V108.454C38.8426 108.485 37.7558 108.485 36.7074 108.523C32.437 108.585 28.4286 108.646 24.7363 108.739C21.0131 108.808 17.6368 108.9 14.6074 108.992C11.5857 109.092 8.97258 109.154 6.80652 109.215C4.64817 109.277 2.96003 109.377 1.78064 109.408C0.632089 109.439 0 109.469 0 109.469C0 109.469 0.601254 109.5 1.78064 109.531C2.89065 109.562 4.60962 109.631 6.77568 109.692ZM88.3768 15.7154C108.943 15.7154 120.66 33.3462 123.365 53.2539C119.773 51.7385 117.507 53.8847 117.507 53.8847C117.576 53.7001 124.067 58.1001 123.974 63.7001C123.72 85.9847 112.643 108.015 90.99 108.015C76.8528 108.015 65.1977 98.2001 65.1977 89.3385C65.1977 80.6616 70.424 78.6078 74.2782 78.6078C77.3924 78.6078 79.3349 80.4155 79.3349 83.0693C79.3349 85.1308 77.9011 86.7462 77.9011 86.7462C77.9011 86.7462 79.7203 87.7231 82.0405 87.7231C87.0124 87.7231 91.3677 84.0847 91.3677 77.7231C91.3677 72.1231 87.1358 67.6231 79.9747 67.6231C70.1002 67.6231 61.8291 76.8001 61.8291 87.8539C61.8291 96.1462 67.9727 104.023 77.0455 108.169C72.775 108.169 68.5431 108.2 64.3729 108.2C62.9391 108.2 61.5362 108.2 60.1101 108.231V42.0847C60.1101 24.8001 73.5767 15.7154 88.3768 15.7154Z" fill="black"/>
</g>
<mask id="mask3_48_369" style="mask-type:luminance" maskUnits="userSpaceOnUse" x="0" y="138" width="159" height="48">
<path d="M0 138.623H158.361V185.885H0V138.623Z" fill="white"/>
</mask>
<g mask="url(#mask3_48_369)">
<path d="M151.516 139.7C149.35 139.631 146.706 139.538 143.715 139.477C140.686 139.377 137.279 139.285 133.587 139.223C131.744 139.192 129.802 139.131 127.798 139.092C125.786 139.062 123.72 139.031 121.585 139C117.322 138.938 112.859 138.877 108.211 138.838C105.89 138.808 103.532 138.808 101.142 138.777C99.9703 138.777 98.76 138.746 97.5498 138.746C96.3396 138.746 95.1294 138.746 93.9192 138.746C89.0474 138.746 84.1141 138.715 79.1422 138.715C74.2088 138.715 69.2446 138.746 64.3729 138.746C61.9216 138.746 59.532 138.777 57.1424 138.777C54.7605 138.808 52.4017 138.808 50.0815 138.838C45.4256 138.877 40.9393 138.938 36.7074 139C32.437 139.062 28.4286 139.131 24.7363 139.223C21.0131 139.285 17.6368 139.377 14.6074 139.477C11.5857 139.569 8.97258 139.631 6.80652 139.7C4.64817 139.762 2.96003 139.854 1.78064 139.885C0.632089 139.915 0 139.946 0 139.946C0 139.946 0.601254 139.985 1.78064 140.015C2.92919 140.046 4.64817 140.138 6.80652 140.2C8.97258 140.269 11.6166 140.362 14.6074 140.423C17.6368 140.523 21.0439 140.615 24.7363 140.677C28.4594 140.769 32.4678 140.838 36.7074 140.9C37.7557 140.9 38.8426 140.931 39.9218 140.962V141.408C39.9218 165.623 30.8182 174.038 30.8182 174.038C30.8182 174.038 41.2554 176.731 50.0429 168.308C50.0429 168.308 60.5495 184.769 79.5276 184.769C93.4721 184.769 101.304 178.154 101.304 169.131C101.304 163.438 96.2394 158.754 90.7048 158.754C83.4434 158.754 79.7203 163.308 79.7203 168.246C79.7203 170.554 80.7686 172.015 80.7686 172.015C80.7686 172.015 82.0405 170.492 84.2066 170.492C86.6578 170.492 89.0783 172.108 89.0783 175.208C89.0783 179.231 85.9255 181.892 81.8863 181.892C68.4814 181.892 60.1409 164.923 60.1409 143.562V141.185C61.5362 141.185 62.9699 141.215 64.4037 141.215C69.2754 141.215 74.2088 141.246 79.1807 141.246C84.1141 141.246 89.0783 141.215 93.95 141.215C95.1602 141.215 96.3704 141.215 97.5806 141.215C98.7909 141.215 100.001 141.185 101.18 141.185C103.562 141.154 105.921 141.154 108.249 141.123C112.897 141.092 117.384 141.023 121.615 140.962C123.751 140.931 125.817 140.9 127.828 140.869C129.833 140.838 131.775 140.769 133.617 140.738C137.348 140.677 140.717 140.585 143.746 140.485C146.768 140.392 149.381 140.331 151.547 140.269C153.713 140.2 155.394 140.108 156.573 140.077C157.722 140.046 158.361 140.015 158.361 140.015C158.361 140.015 157.752 139.985 156.573 139.946C155.394 139.823 153.675 139.762 151.516 139.7Z" fill="black"/>
</g>
<mask id="mask4_48_369" style="mask-type:luminance" maskUnits="userSpaceOnUse" x="44" y="0" width="11" height="21">
<path d="M44.6777 0H54.5445V20.4692H44.6777V0Z" fill="white"/>
</mask>
<g mask="url(#mask4_48_369)">
<path d="M54.1503 14.5153L50.0109 0.0768433L45.9023 14.5153L50.0109 20.2384L54.1503 14.5153Z" fill="black"/>
</g>
<mask id="mask5_48_369" style="mask-type:luminance" maskUnits="userSpaceOnUse" x="44" y="170" width="11" height="22">
<path d="M44.6777 170.131H54.5445V192H44.6777V170.131Z" fill="white"/>
</mask>
<g mask="url(#mask5_48_369)">
<path d="M45.9023 177.392L50.0109 191.923L54.1503 177.392L50.0109 171.762L45.9023 177.392Z" fill="black"/>
</g>
<path d="M53.3986 117.933C53.3986 118.672 53.2521 119.364 52.9669 119.995C52.4273 121.248 51.4329 122.11 49.976 122.579C49.5444 122.725 49.1435 122.795 48.7735 122.795C47.6404 122.795 46.6306 122.502 45.7518 121.902V121.687C46.9389 121.71 47.8948 121.318 48.6194 120.518C49.2514 119.825 49.5752 118.91 49.5752 117.779C49.5752 116.633 49.2977 115.748 48.7427 115.133C48.2031 114.502 47.4631 114.179 46.5227 114.179H44.9502V128.087C44.9502 128.518 45.0889 128.879 45.3818 129.164C45.6902 129.456 46.0447 129.595 46.461 129.595H46.7693V129.841H39.5234V129.595H39.8318C40.2403 129.595 40.5872 129.456 40.8801 129.164C41.1885 128.879 41.3426 128.518 41.3426 128.087V114.795C41.3426 114.387 41.1885 114.056 40.8801 113.81C40.5872 113.548 40.2403 113.41 39.8318 113.41H39.5234V113.164H47.4785C49.4287 113.164 50.901 113.579 51.8877 114.395C52.8898 115.279 53.3986 116.456 53.3986 117.933Z" fill="black"/>
<path d="M69.9878 129.595H70.1728V129.841H63.1427V129.595H63.3585C63.6669 129.595 63.8904 129.502 64.0369 129.318C64.1756 129.133 64.2527 128.964 64.2527 128.795C64.2527 128.633 64.2219 128.472 64.1602 128.302L63.2352 126.087H58.1785L57.2226 128.302C57.161 128.472 57.1301 128.633 57.1301 128.795C57.1301 128.964 57.1995 129.133 57.346 129.318C57.4847 129.502 57.7237 129.595 58.0551 129.595H58.2401V129.841H53.4609V129.595H53.6459C54.0005 129.595 54.332 129.495 54.6634 129.287C54.9872 129.087 55.257 128.779 55.4651 128.364L60.3985 117.779C61.0923 116.226 61.4623 115.256 61.5085 114.887H61.7243L68.1069 128.272C68.3073 128.726 68.5848 129.064 68.9394 129.287C69.2863 129.495 69.6332 129.595 69.9878 129.595ZM58.5793 125.164H62.8344L60.7068 120.21L58.5793 125.164Z" fill="black"/>
<path d="M83.2562 118.948V118.733C83.2562 118.041 83.0558 117.495 82.6704 117.102C82.3004 116.718 81.7762 116.51 81.0979 116.487H78.3229V128.364C78.3383 128.718 78.477 129.01 78.7237 129.256C78.9704 129.487 79.2633 129.595 79.6179 129.595H79.8954V129.841H73.297V129.595H73.5437C73.9137 129.595 74.222 129.487 74.4687 129.256C74.7307 129.01 74.8695 128.702 74.8695 128.333V116.487H72.1253C71.4238 116.51 70.8765 116.718 70.4911 117.102C70.098 117.495 69.9053 118.041 69.9053 118.733V118.948H69.6895V115.164C69.913 115.248 70.283 115.333 70.7995 115.41C71.3082 115.495 71.7707 115.533 72.187 115.533H81.0054C81.6991 115.533 82.2773 115.487 82.7321 115.379C83.1792 115.279 83.4412 115.21 83.5029 115.164V118.948H83.2562Z" fill="black"/>
<path d="M90.4924 116.518H89.7216V128.333C89.7216 128.725 89.8526 129.033 90.1224 129.256C90.3845 129.487 90.6852 129.595 91.0166 129.595H91.2941V129.841H84.7266V129.595H85.0041C85.3509 129.595 85.6516 129.487 85.8982 129.256C86.1449 129.01 86.2682 128.718 86.2682 128.364V117.041C86.2682 116.695 86.1449 116.395 85.8982 116.149C85.6516 115.902 85.3587 115.779 85.0349 115.779H84.7266V115.564H92.0341C93.4679 115.564 94.6704 115.841 95.6417 116.395C96.7285 117.01 97.2758 118.041 97.2758 119.472C97.2758 120.379 96.9983 121.195 96.4433 121.933C95.8883 122.672 95.0558 123.125 93.9458 123.287C94.3775 123.433 94.7937 123.71 95.21 124.118C95.6417 124.51 95.9885 124.91 96.2583 125.318C96.7517 126.225 97.2758 127.056 97.8308 127.81C98.4013 128.572 98.8561 129.064 99.1875 129.287C99.5344 129.495 99.9584 129.595 100.452 129.595V129.841H98.4475C97.1294 129.841 96.1119 129.687 95.395 129.379C94.6935 129.056 94.0691 128.449 93.5141 127.564C92.6508 126.195 92.1112 125.102 91.9108 124.302C91.7027 123.833 91.4637 123.487 91.2016 123.256C90.955 123.01 90.7083 122.872 90.4616 122.825V122.641H91.0783C92.4118 122.625 93.2366 121.833 93.545 120.272C93.6066 120.025 93.6375 119.825 93.6375 119.656C93.6375 119.472 93.6221 119.225 93.6066 118.918C93.6066 118.61 93.5141 118.264 93.3291 117.872C93.1441 117.487 92.9052 117.21 92.62 117.041C92.1266 116.733 91.6102 116.572 91.0783 116.549C90.9087 116.533 90.716 116.518 90.4924 116.518Z" fill="black"/>
<path d="M100.219 129.595H100.527C100.897 129.595 101.213 129.472 101.483 129.225C101.745 128.979 101.884 128.687 101.884 128.333V117.041C101.884 116.695 101.745 116.395 101.483 116.149C101.213 115.902 100.897 115.779 100.527 115.779H100.219V115.564H107.002V115.779H106.725C106.355 115.779 106.031 115.902 105.769 116.149C105.499 116.395 105.353 116.695 105.337 117.041V128.333C105.353 128.702 105.499 129.01 105.769 129.256C106.031 129.487 106.355 129.595 106.725 129.595H107.002V129.841H100.219V129.595Z" fill="black"/>
<path d="M117.228 130.149C114.553 130.126 112.448 129.472 110.907 128.179C109.38 126.872 108.625 125.041 108.625 122.703C108.625 120.364 109.38 118.541 110.907 117.226C112.425 115.918 114.53 115.256 117.228 115.256C119.324 115.256 121.113 115.618 122.593 116.333V120.118H122.438C122.022 118.703 121.406 117.703 120.588 117.103C119.764 116.487 118.723 116.179 117.474 116.179C115.786 116.179 114.491 116.764 113.589 117.933C112.703 119.087 112.263 120.656 112.263 122.641C112.263 124.633 112.703 126.21 113.589 127.379C114.491 128.595 115.724 129.195 117.289 129.195C118.399 129.195 119.324 129.026 120.064 128.672C120.804 128.326 121.375 127.772 121.791 127.01C122.223 126.233 122.546 125.187 122.778 123.872H122.932L123.209 127.472C122.716 128.272 121.961 128.918 120.958 129.41C119.949 129.903 118.708 130.149 117.228 130.149Z" fill="black"/>
<path d="M124.896 129.595H125.205C125.575 129.595 125.891 129.472 126.161 129.225C126.423 128.979 126.561 128.687 126.561 128.333V117.041C126.561 116.695 126.423 116.395 126.161 116.149C125.891 115.902 125.575 115.779 125.205 115.779H124.896V115.564H131.68V115.779H131.402C131.032 115.779 130.709 115.902 130.447 116.149C130.177 116.395 130.03 116.695 130.015 117.041V128.333C130.03 128.702 130.177 129.01 130.447 129.256C130.709 129.487 131.032 129.595 131.402 129.595H131.68V129.841H124.896V129.595Z" fill="black"/>
<path d="M148.406 129.595H148.591V129.841H141.561V129.595H141.776C142.085 129.595 142.308 129.502 142.455 129.318C142.594 129.133 142.671 128.964 142.671 128.795C142.671 128.633 142.64 128.472 142.578 128.302L141.653 126.087H136.596L135.641 128.302C135.579 128.472 135.548 128.633 135.548 128.795C135.548 128.964 135.617 129.133 135.764 129.318C135.903 129.502 136.142 129.595 136.473 129.595H136.658V129.841H131.879V129.595H132.064C132.418 129.595 132.75 129.495 133.081 129.287C133.405 129.087 133.675 128.779 133.883 128.364L138.816 117.779C139.51 116.226 139.88 115.256 139.926 114.887H140.142L146.525 128.272C146.725 128.726 147.003 129.064 147.357 129.287C147.704 129.495 148.051 129.595 148.406 129.595ZM136.997 125.164H141.252L139.125 120.21L136.997 125.164Z" fill="black"/>
<path d="M161.416 114.21H160.399C160.352 114.21 160.337 114.21 160.337 114.21V128.087C160.337 128.518 160.476 128.879 160.769 129.164C161.077 129.456 161.431 129.595 161.848 129.595H162.156V129.841H154.91V129.595H155.218C155.789 129.595 156.221 129.348 156.514 128.856C156.652 128.633 156.729 128.387 156.729 128.118V114.918C156.729 114.51 156.575 114.164 156.267 113.872C155.974 113.564 155.627 113.41 155.218 113.41H154.91V113.164H163.081C164.623 113.164 165.925 113.502 166.997 114.179C167.552 114.51 167.984 114.972 168.292 115.564C168.616 116.164 168.785 116.941 168.785 117.902C168.785 118.872 168.446 119.795 167.768 120.672C167.105 121.556 166.141 122.072 164.869 122.21C165.771 122.502 166.581 123.195 167.305 124.302C169.009 127.056 170.273 128.687 171.098 129.195C171.529 129.441 172.054 129.579 172.67 129.595V129.841H170.327C168.924 129.841 167.768 129.656 166.843 129.287C165.933 128.918 165.224 128.287 164.715 127.379C164.407 126.848 163.744 125.487 162.742 123.287C162.287 122.325 161.74 121.795 161.108 121.687V121.472H161.848C162.565 121.472 163.189 121.256 163.729 120.825C164.284 120.395 164.661 119.702 164.869 118.733C164.931 118.387 164.962 118.118 164.962 117.933C164.962 116.641 164.692 115.71 164.16 115.133C163.644 114.541 162.965 114.233 162.125 114.21C161.979 114.21 161.74 114.21 161.416 114.21Z" fill="black"/>
<path d="M188.003 115.779H187.664C187.371 115.779 187.124 115.872 186.924 116.056C186.716 116.241 186.6 116.479 186.585 116.764V124.641C186.585 126.364 186.06 127.718 185.012 128.702C183.964 129.672 182.399 130.149 180.325 130.149C178.244 130.149 176.625 129.679 175.454 128.733C174.297 127.772 173.727 126.425 173.727 124.702V116.795C173.727 116.51 173.611 116.272 173.388 116.087C173.18 115.887 172.933 115.779 172.648 115.779H172.309V115.564H178.568V115.779H178.259C177.951 115.779 177.689 115.887 177.489 116.087C177.281 116.272 177.18 116.51 177.18 116.795V124.518C177.18 125.995 177.519 127.149 178.198 127.964C178.876 128.787 179.817 129.195 181.035 129.195C182.268 129.195 183.231 128.81 183.933 128.025C184.65 127.249 185.012 126.172 185.012 124.795V116.795C184.989 116.487 184.873 116.241 184.673 116.056C184.465 115.872 184.21 115.779 183.902 115.779H183.594V115.564H188.003V115.779Z" fill="black"/>
<path d="M202.274 118.948V118.733C202.274 118.041 202.073 117.495 201.688 117.102C201.318 116.718 200.794 116.51 200.115 116.487H197.34V128.364C197.356 128.718 197.495 129.01 197.741 129.256C197.988 129.487 198.281 129.595 198.635 129.595H198.913V129.841H192.315V129.595H192.561C192.931 129.595 193.24 129.487 193.486 129.256C193.748 129.01 193.887 128.702 193.887 128.333V116.487H191.143C190.441 116.51 189.894 116.718 189.509 117.102C189.116 117.495 188.923 118.041 188.923 118.733V118.948H188.707V115.164C188.931 115.248 189.301 115.333 189.817 115.41C190.326 115.495 190.788 115.533 191.205 115.533H200.023C200.717 115.533 201.295 115.487 201.75 115.379C202.197 115.279 202.459 115.21 202.52 115.164V118.948H202.274Z" fill="black"/>
<path d="M203.557 129.841V129.595H203.865C204.212 129.595 204.512 129.487 204.759 129.256C205.006 129.01 205.129 128.718 205.129 128.364V117.041C205.129 116.695 205.006 116.395 204.759 116.148C204.512 115.902 204.212 115.779 203.865 115.779H203.557V115.564H210.186V115.779H209.908C209.538 115.779 209.23 115.902 208.983 116.148C208.737 116.395 208.613 116.695 208.613 117.041V128.887H211.481C212.444 128.871 213.269 128.564 213.948 127.964C214.641 127.371 215.158 126.541 215.489 125.471H215.736L214.811 129.841H203.557Z" fill="black"/>
<path d="M227.891 129.841H216.637V129.595H216.945C217.292 129.595 217.593 129.487 217.839 129.256C218.086 129.01 218.217 128.718 218.24 128.364V117.041C218.217 116.695 218.086 116.395 217.839 116.149C217.593 115.902 217.292 115.779 216.945 115.779H216.637V115.564H225.054C225.486 115.564 225.948 115.525 226.442 115.441C226.951 115.364 227.313 115.279 227.521 115.195V118.979H227.305V118.764C227.305 118.072 227.105 117.525 226.719 117.133C226.326 116.725 225.794 116.518 225.116 116.518H221.693V122.302H224.407C224.939 122.287 225.37 122.102 225.702 121.749C226.049 121.402 226.226 120.949 226.226 120.395V120.241H226.442V125.287H226.226V125.133C226.226 124.379 225.948 123.833 225.393 123.502C225.101 123.341 224.784 123.256 224.438 123.256H221.693V128.887H224.561C225.525 128.872 226.357 128.564 227.058 127.964C227.752 127.372 228.261 126.541 228.569 125.472H228.785L227.891 129.841Z" fill="black"/>
<path d="M244.132 117.471C245.589 118.725 246.322 120.471 246.322 122.702C246.322 124.941 245.589 126.695 244.132 127.964C242.691 129.218 240.687 129.841 238.12 129.841H230.072V129.595H230.381C230.727 129.595 231.028 129.471 231.275 129.225C231.537 128.964 231.683 128.656 231.706 128.302V117.041C231.66 116.695 231.521 116.395 231.275 116.148C231.028 115.902 230.72 115.779 230.35 115.779H230.072V115.564H238.12C240.687 115.564 242.691 116.202 244.132 117.471ZM237.842 128.887C239.338 128.887 240.525 128.348 241.388 127.256C242.252 126.148 242.683 124.633 242.683 122.702C242.683 120.756 242.252 119.241 241.388 118.148C240.525 117.041 239.338 116.487 237.842 116.487H235.129V128.887H237.842Z" fill="black"/>
<path d="M250.051 128.149C248.633 126.818 247.924 124.995 247.924 122.672C247.924 120.356 248.633 118.541 250.051 117.226C251.485 115.918 253.451 115.256 255.941 115.256C257.066 115.256 258.168 115.364 259.24 115.564C260.327 115.749 261.198 116.01 261.861 116.333V120.118H261.676C260.974 117.495 259.309 116.179 256.681 116.179C255.016 116.179 253.751 116.764 252.888 117.933C252.025 119.087 251.593 120.687 251.593 122.733C251.593 124.787 251.978 126.379 252.765 127.503C253.543 128.633 254.661 129.195 256.126 129.195C256.904 129.195 257.613 129.01 258.253 128.641C258.885 128.272 259.309 127.741 259.517 127.041L259.548 124.179C259.548 123.872 259.456 123.641 259.271 123.472C259.086 123.31 258.824 123.226 258.5 123.226H258.161V123.041H264.296V123.226H264.019C263.318 123.226 262.971 123.549 262.971 124.179V127.379C262.416 128.079 261.467 128.718 260.134 129.287C258.816 129.856 257.374 130.149 255.817 130.149C253.412 130.126 251.485 129.464 250.051 128.149Z" fill="black"/>
<path d="M276.6 129.841H265.346V129.595H265.654C266.001 129.595 266.302 129.487 266.548 129.256C266.795 129.01 266.926 128.718 266.949 128.364V117.041C266.926 116.695 266.795 116.395 266.548 116.149C266.302 115.902 266.001 115.779 265.654 115.779H265.346V115.564H273.763C274.195 115.564 274.657 115.525 275.151 115.441C275.66 115.364 276.022 115.279 276.23 115.195V118.979H276.014V118.764C276.014 118.072 275.814 117.525 275.428 117.133C275.035 116.725 274.503 116.518 273.825 116.518H270.402V122.302H273.116C273.648 122.287 274.079 122.102 274.411 121.749C274.758 121.402 274.935 120.949 274.935 120.395V120.241H275.151V125.287H274.935V125.133C274.935 124.379 274.657 123.833 274.102 123.502C273.81 123.341 273.493 123.256 273.147 123.256H270.402V128.887H273.27C274.233 128.872 275.066 128.564 275.767 127.964C276.461 127.372 276.97 126.541 277.278 125.472H277.494L276.6 129.841Z" fill="black"/>
</svg>
