<svg width="1323" height="455" viewBox="0 0 1323 455" fill="none" xmlns="http://www.w3.org/2000/svg">
<path d="M1085.55 355.865C1204.39 192.653 1185.65 186.41 1194.23 120.684C1168.66 163.348 1222.42 140.787 1138.78 273.567L1085.55 355.865Z" fill="#9EC5AB"/>
<path d="M1031.64 429.49C1049.07 412.666 1057.62 405.776 1081.06 376.424C1115.84 353.757 1150.53 335.195 1176.93 283.582C1141.44 325.023 1126.41 330.084 1111.12 340.73C1166.59 295.274 1196.64 247.796 1206.03 226.163C1194.11 245.753 1178.77 264.812 1151.79 275.221C1202.22 228.137 1198.69 234.301 1209.66 210.448C1221.44 178.635 1208.8 100.681 1208.22 90.5008C1213 155.73 1190.86 196.883 1170.59 233.203C1169.99 234.275 1169.42 235.336 1168.89 236.387C1136.79 296.259 1116.71 325.304 1079.41 369.578C1068.41 381.284 1056.37 393.358 1043.17 405.908C1042.3 413.281 1040.68 417.985 1031.64 429.49Z" fill="#3A2A4C"/>
<path d="M1092.08 374.358L1091.83 374.403L1099.31 369.988C1107.57 365.732 1110.35 366.965 1126.02 357.965C1107.34 371.44 1101.82 372.496 1092.08 374.358Z" fill="#E5C4A1"/>
<path d="M1221.1 185.783C1265.95 65.638 1205.37 48.0989 1213.23 0.945506C1204.13 31.3823 1247.72 67.3214 1221.1 185.783Z" fill="#9EC5AB"/>
<path d="M1200.17 138.092C1199.6 119.097 1186.35 86.8197 1210.58 49.613C1190.27 83.1735 1201.34 102.032 1200.17 138.092Z" fill="#E5C4A1"/>
<path d="M1033.5 428.501C805.5 550.5 137.5 195.5 -72 428.501C98 173.5 781 526.001 1033.5 428.501Z" fill="#3A2A4C"/>
</svg>
