<svg width="278" height="153" viewBox="0 0 278 153" fill="none" xmlns="http://www.w3.org/2000/svg">
<mask id="mask0_57_829" style="mask-type:luminance" maskUnits="userSpaceOnUse" x="59" y="48" width="13" height="105">
<path d="M59.0664 48.3198H71.7019V152.517H59.0664V48.3198Z" fill="white"/>
</mask>
<g mask="url(#mask0_57_829)">
<mask id="mask1_57_829" style="mask-type:luminance" maskUnits="userSpaceOnUse" x="59" y="48" width="13" height="105">
<path d="M63.0375 50.1018C64.0317 69.6248 67.012 87.3743 68.3621 101.714C69.8513 117.332 72.4083 145.729 71.4857 150.628C71.3425 151.479 71.2014 151.835 70.8454 152.119C70.42 152.403 69.6385 152.544 69.1415 152.403C68.716 152.188 68.1473 151.622 68.0062 151.196C67.9346 150.699 68.0778 149.918 68.3621 149.562C68.716 149.208 69.4258 148.852 69.9229 148.924C70.42 148.995 71.0582 149.421 71.3425 149.846C71.5552 150.272 71.5552 151.125 71.3425 151.55C71.0582 151.976 70.42 152.473 69.9229 152.473C69.3542 152.403 68.5749 151.976 68.0062 150.769C65.4513 145.8 66.3022 117.616 64.811 102.07C63.463 87.6566 60.4805 70.0524 59.7707 60.6816C59.4168 55.854 58.6354 51.5235 59.5579 49.6763C59.9834 48.8254 60.9081 48.2567 61.4746 48.3283C62.0433 48.4 63.0375 50.1018 63.0375 50.1018Z" fill="white"/>
</mask>
<g mask="url(#mask1_57_829)">
<path d="M56.7188 45.489H74.3946V155.278H56.7188V45.489Z" fill="black"/>
</g>
</g>
<mask id="mask2_57_829" style="mask-type:luminance" maskUnits="userSpaceOnUse" x="72" y="0" width="192" height="134">
<path d="M72.1885 0H264V133.573H72.1885V0Z" fill="white"/>
</mask>
<g mask="url(#mask2_57_829)">
<mask id="mask3_57_829" style="mask-type:luminance" maskUnits="userSpaceOnUse" x="72" y="0" width="192" height="134">
<path d="M72.4769 55.7824C71.9819 49.1098 72.4769 46.696 73.1172 44.4233C73.7554 41.8684 74.5368 39.383 75.9565 36.6133C77.8732 32.9947 80.9968 28.5926 83.9792 24.972C86.8901 21.4229 89.9421 18.1561 93.7755 15.1041C98.106 11.6961 103.928 8.28821 109.04 5.87442C113.796 3.67337 118.48 2.04102 123.238 1.04686C127.71 0.195926 132.324 -0.160034 136.727 0.124313C140.985 0.408658 145.387 1.25959 149.29 2.67922C153.124 4.10095 156.744 6.08716 159.868 8.57255C162.922 10.9863 166.117 13.1874 167.819 17.3051C170.233 23.3396 169.454 35.1937 168.672 43.0753C168.034 49.9607 166.471 56.2079 164.342 62.1708C162.282 67.8514 159.301 73.2455 156.319 78.2163C153.48 82.8311 150.497 87.09 146.807 91.1362C142.974 95.2539 138.43 99.3717 133.672 102.495C129.058 105.547 123.379 108.033 118.693 109.737C114.718 111.156 111.026 112.292 107.477 112.576C104.353 112.789 101.301 112.504 98.6031 111.723C96.0482 111.013 93.5628 109.878 91.5745 108.317C89.5861 106.754 87.741 104.766 86.5342 102.424C85.1861 99.7255 84.5458 95.9637 84.3331 92.8401C84.1204 90.0009 84.3331 87.2311 84.9734 84.533C85.54 81.9065 86.5342 79.1389 87.8822 76.7251C89.3039 74.3113 91.149 72.0386 93.0657 70.0524C95.054 68.0641 97.3246 66.219 99.81 64.7973C102.365 63.3776 105.063 62.2424 108.115 61.6042C111.736 60.7511 115.925 60.2541 120.327 60.8227C125.793 61.4609 132.678 64.3718 138.216 66.5729C143.186 68.6307 147.586 70.975 152.06 73.3887C156.462 75.8025 159.443 77.5065 164.91 81.1967C175.417 88.438 199.624 108.386 209.635 115.628C214.532 119.179 217.159 121.024 220.779 123.225C224.118 125.07 227.17 126.915 230.506 127.981C233.842 129.116 237.535 129.826 240.871 129.969C243.853 130.111 247.047 129.757 249.532 129.116C251.59 128.619 253.153 127.981 254.928 126.915C257.058 125.639 259.825 122.088 261.316 121.662C262.026 121.45 262.595 121.593 263.02 121.875C263.376 122.159 263.73 122.869 263.73 123.366C263.73 123.792 263.376 124.502 262.949 124.786C262.523 125.07 261.742 125.142 261.316 124.929C260.819 124.716 260.181 123.651 260.181 123.082C260.251 122.585 260.748 121.947 261.175 121.734C261.601 121.521 262.382 121.521 262.808 121.734C263.233 122.018 263.73 122.656 263.73 123.154C263.802 123.651 263.518 124.076 263.092 124.645C262.098 126.064 258.618 128.832 256.276 130.182C254.218 131.389 252.302 132.099 249.888 132.665C247.047 133.306 243.569 133.66 240.233 133.447C236.612 133.234 232.566 132.453 228.945 131.176C225.394 129.969 222.201 128.122 218.793 126.136C215.101 123.935 212.474 122.018 207.506 118.467C197.494 111.228 173.428 91.4205 163.063 84.2508C157.739 80.5585 154.828 78.9956 150.497 76.5818C146.167 74.1681 141.908 71.9691 137.08 69.9808C131.899 67.7797 125.509 65.0121 120.468 64.3002C116.422 63.8052 112.66 64.2307 109.322 64.9405C106.554 65.5071 104.212 66.3601 101.939 67.6386C99.7383 68.8455 97.6805 70.4779 95.8333 72.2514C94.0598 74.0269 92.4275 75.9436 91.2206 78.0731C89.9421 80.2025 89.0195 82.5468 88.4509 84.889C87.8822 87.2311 87.6694 89.6449 87.8127 92.1303C87.9538 94.8284 88.3097 98.0932 89.3734 100.366C90.2959 102.283 91.6461 103.915 93.2784 105.193C94.8413 106.541 96.8991 107.607 99.0285 108.245C101.371 108.955 103.999 109.311 106.695 109.096C109.962 108.955 113.44 107.889 117.132 106.541C121.604 104.981 126.928 102.708 131.402 99.7971C135.945 96.8147 140.276 92.9117 143.968 89.0067C147.517 85.1733 150.356 81.0556 153.124 76.5818C156.035 71.8975 158.876 66.7856 160.862 61.3198C162.922 55.6392 164.413 49.6764 165.193 43.1448C165.974 35.7624 167.109 24.616 164.91 19.0786C163.56 15.5296 160.721 13.754 158.023 11.6245C155.325 9.35398 151.989 7.43728 148.581 6.15877C144.96 4.81076 140.914 3.95772 136.939 3.67337C132.821 3.38903 128.563 3.60387 124.302 4.4548C119.9 5.30784 115.356 6.86858 110.885 8.92641C105.986 11.1991 100.448 14.3943 96.2609 17.659C92.5686 20.4982 89.7294 23.6218 86.8901 27.0298C84.0488 30.3661 81.2095 33.9173 79.2928 37.8918C77.3761 41.8684 75.7437 47.4058 75.3878 50.8138C75.175 52.9432 76.3819 55.1442 75.8849 56.2079C75.6005 56.8461 74.7496 57.4148 74.2525 57.3432C73.6143 57.3432 72.4769 55.7824 72.4769 55.7824Z" fill="white"/>
</mask>
<g mask="url(#mask3_57_829)">
<path d="M63.4102 -2.71497H261.054V136.286H63.4102V-2.71497Z" fill="black"/>
</g>
</g>
<mask id="mask4_57_829" style="mask-type:luminance" maskUnits="userSpaceOnUse" x="0" y="10" width="108" height="114">
<path d="M0 10.3523H107.236V123.101H0V10.3523Z" fill="white"/>
</mask>
<g mask="url(#mask4_57_829)">
<mask id="mask5_57_829" style="mask-type:luminance" maskUnits="userSpaceOnUse" x="0" y="10" width="108" height="114">
<path d="M0.77596 82.2625C0.066148 76.6535 0.350494 73.176 0.77596 70.3347C1.27304 67.4259 1.98285 64.4435 3.12024 61.461C4.32713 58.1963 5.95949 54.7883 7.87619 51.452C10.0056 47.9724 12.491 44.495 15.187 41.0871C18.0284 37.6075 21.2931 34.0584 24.7011 30.8632C28.1785 27.6701 31.7297 24.5465 35.9886 21.8484C40.8877 18.8659 47.1349 16.0983 52.5291 14.1816C57.4999 12.406 62.1842 10.9148 67.2245 10.5609C72.4775 10.205 78.512 10.9864 83.4112 12.2649C87.6701 13.4002 91.7878 15.1041 95.1241 17.4463C98.2477 19.5757 101.089 22.1327 103.006 25.4691C105.135 29.1593 106.342 34.5555 106.768 39.0987C107.265 43.5008 107.193 47.7597 105.986 52.3745C104.567 57.9835 100.946 64.5846 97.7507 70.0524C94.6987 75.375 91.078 80.133 87.2446 84.8174C83.4828 89.3606 79.365 93.6911 75.0346 97.6677C70.7041 101.642 66.5147 105.335 61.4028 108.671C55.5116 112.504 47.4888 116.481 41.3132 118.964C36.3445 120.953 31.8708 123.012 27.3276 123.082C22.9971 123.082 18.4539 121.593 14.6205 119.533C10.6438 117.403 5.10645 112.363 3.83005 110.162C3.33297 109.381 3.12024 108.53 3.40248 108.104C3.68682 107.536 5.31918 107.039 5.88787 107.323C6.38495 107.607 6.81042 109.311 6.52607 109.806C6.17222 110.303 4.46825 110.659 3.97117 110.303C3.47409 109.949 3.26136 108.245 3.61521 107.748C3.89956 107.323 4.8221 107.039 5.67514 107.251C7.87619 107.748 12.0635 114.137 15.7557 116.197C19.0921 118.113 22.856 119.604 26.6178 119.674C30.8071 119.674 34.9944 117.688 39.6808 115.771C45.6437 113.427 53.4516 109.593 59.1322 105.903C64.1725 102.708 68.2187 99.0873 72.408 95.2539C76.6669 91.3489 80.7131 87.1617 84.4053 82.688C88.0976 78.2859 91.5751 73.6015 94.5576 68.5612C97.6095 63.3777 101.089 57.2021 102.509 52.0186C103.572 47.8313 103.716 43.9263 103.36 39.9518C103.006 35.834 102.153 31.076 100.379 27.7396C98.7448 24.7593 96.331 22.5582 93.5634 20.5699C90.5809 18.4405 86.8907 16.8776 82.9141 15.7423C78.4425 14.5354 72.9051 13.754 68.0059 14.0384C63.25 14.3227 58.7763 15.7423 54.0203 17.3747C48.8389 19.2219 42.8739 21.8484 38.1896 24.6877C34.0718 27.2426 30.6639 30.225 27.256 33.3486C23.9912 36.4006 20.8677 39.8085 18.0979 43.1449C15.4714 46.3401 13.0576 49.6764 11.0714 53.0127C9.29582 56.1363 7.66346 59.3315 6.52607 62.3835C5.46241 65.1533 4.8221 67.9209 4.32713 70.619C3.89956 73.176 3.61521 76.0869 3.68682 78.2859C3.68682 79.9203 4.60937 81.6243 4.1839 82.5468C3.89956 83.185 3.12024 83.7537 2.62316 83.7537C1.98285 83.7537 0.77596 82.2625 0.77596 82.2625Z" fill="white"/>
</mask>
<g mask="url(#mask5_57_829)">
<path d="M-2.63379 7.7196H109.677V125.734H-2.63379V7.7196Z" fill="black"/>
</g>
</g>
<mask id="mask6_57_829" style="mask-type:luminance" maskUnits="userSpaceOnUse" x="134" y="27" width="30" height="109">
<path d="M134.6 27.3184H163.771V135.629H134.6V27.3184Z" fill="white"/>
</mask>
<g mask="url(#mask6_57_829)">
<mask id="mask7_57_829" style="mask-type:luminance" maskUnits="userSpaceOnUse" x="134" y="27" width="30" height="109">
<path d="M138.145 28.5925C152.485 82.334 161.571 119.392 163.063 129.188C163.488 131.956 163.985 133.66 163.419 134.654C163.063 135.222 161.999 135.576 161.43 135.507C160.933 135.435 160.295 134.866 160.223 134.369C160.082 133.803 160.792 132.24 161.359 132.099C161.927 131.886 163.488 132.737 163.631 133.377C163.772 133.944 162.778 135.363 162.212 135.507C161.643 135.648 160.862 135.151 160.082 134.015C156.177 128.053 149.22 84.0379 144.393 64.7972C140.913 51.0264 133.956 33.7739 134.737 29.3739C134.879 28.2366 135.519 27.5984 136.085 27.4572C136.654 27.314 138.145 28.5925 138.145 28.5925Z" fill="white"/>
</mask>
<g mask="url(#mask7_57_829)">
<path d="M131.897 24.616H166.47V138.464H131.897V24.616Z" fill="black"/>
</g>
</g>
<mask id="mask8_57_829" style="mask-type:luminance" maskUnits="userSpaceOnUse" x="81" y="112" width="73" height="35">
<path d="M81.4551 112.974H153.466V146.619H81.4551V112.974Z" fill="white"/>
</mask>
<g mask="url(#mask8_57_829)">
<mask id="mask9_57_829" style="mask-type:luminance" maskUnits="userSpaceOnUse" x="81" y="113" width="73" height="34">
<path d="M88.8776 138.984C85.6845 137.211 85.3285 137.564 85.0442 137.99C84.4776 138.7 83.9089 140.616 83.7678 141.682C83.6246 142.464 83.4834 143.315 83.7678 143.742C83.9089 144.096 84.406 144.521 84.8315 144.38C85.8256 144.168 86.8914 139.694 88.311 138.205C89.3747 136.998 91.007 137.067 91.9317 135.791C93.1386 133.944 93.067 130.323 93.4208 127.2C93.8484 123.294 93.3513 115.912 94.0611 114.067C94.2022 113.498 94.415 113.144 94.7709 113.073C95.1248 113.001 95.6935 113.286 96.1189 113.854C97.5386 115.912 97.8945 127.412 98.9582 131.176C99.5269 133.093 100.805 134.369 100.662 135.294C100.593 135.86 99.9524 136.429 99.5985 136.429C99.2425 136.501 98.676 136.145 98.6043 135.719C98.3916 134.512 102.579 128.265 104.78 127.484C106.343 126.987 108.047 128.975 109.751 128.975C111.596 128.903 113.725 127.484 115.57 127.13C117.205 126.846 118.837 127.484 120.398 127.058C121.961 126.561 122.955 124.929 124.943 124.432C127.782 123.722 133.248 125.567 136.513 124.929C139.142 124.36 141.341 123.153 143.329 121.875C145.246 120.598 146.737 118.254 148.369 117.119C149.648 116.268 151.139 115.415 152.061 115.343C152.559 115.274 153.125 115.415 153.268 115.699C153.481 116.055 153.268 117.047 152.984 117.262C152.7 117.403 151.918 117.332 151.705 117.119C151.423 116.906 151.28 116.481 151.352 116.196C151.423 115.84 151.99 115.343 152.274 115.274C152.559 115.202 153.056 115.415 153.197 115.628C153.409 115.912 153.409 116.693 153.056 117.191C152.559 117.9 150.926 117.972 149.719 118.751C148.085 119.889 146.24 122.444 144.395 123.65C142.903 124.716 141.412 125.426 139.78 125.993C138.004 126.633 136.231 127.058 134.03 127.271C131.26 127.484 126.717 125.923 124.446 126.633C122.883 127.058 122.386 128.55 121.038 129.047C119.475 129.613 117.346 129.188 115.57 129.472C113.938 129.826 112.447 130.82 110.814 130.892C109.041 131.033 106.627 129.259 105.207 129.898C103.786 130.466 103.289 133.162 102.225 134.3C101.372 135.222 100.308 136.501 99.5985 136.429C98.9582 136.358 98.3916 135.435 97.8945 134.512C97.0415 132.95 96.5444 129.898 95.9062 126.987C95.1964 123.294 93.564 115.912 94.0611 114.067C94.1327 113.498 94.415 113.144 94.7709 113.073C95.1248 113.001 95.8346 113.357 96.1189 113.854C96.8288 115.061 96.1906 118.61 95.9062 121.662C95.5524 125.923 94.7709 134.441 93.564 136.998C93.1386 138.062 92.5699 138.559 91.9317 138.915C91.363 139.197 90.7248 138.843 90.0845 139.268C88.7365 140.191 86.9609 145.444 85.5413 146.297C84.8315 146.651 84.1216 146.651 83.4834 146.369C82.7736 146.013 81.9922 144.877 81.7079 143.955C81.354 143.102 81.4951 142.179 81.7079 141.114C81.9922 139.624 82.9147 137.139 83.9089 136.216C84.5471 135.576 85.4697 135.222 86.2511 135.222C87.1041 135.151 88.1678 135.576 88.9492 136.004C89.5874 136.429 90.3688 137.139 90.5816 137.708C90.7248 138.133 90.5816 138.843 90.2972 139.056C90.015 139.268 88.8776 138.984 88.8776 138.984Z" fill="white"/>
</mask>
<g mask="url(#mask9_57_829)">
<path d="M78.8682 110.234H156.208V149.208H78.8682V110.234Z" fill="black"/>
</g>
</g>
<mask id="mask10_57_829" style="mask-type:luminance" maskUnits="userSpaceOnUse" x="120" y="114" width="4" height="3">
<path d="M120.01 114.278H123.135V116.797H120.01V114.278Z" fill="white"/>
</mask>
<g mask="url(#mask10_57_829)">
<mask id="mask11_57_829" style="mask-type:luminance" maskUnits="userSpaceOnUse" x="120" y="114" width="4" height="3">
<path d="M120.54 114.848C123.095 114.777 123.167 115.274 123.095 115.558C122.954 115.912 122.386 116.409 122.101 116.409C121.676 116.338 120.966 115.343 121.038 114.99C121.038 114.705 121.463 114.351 121.747 114.28C122.101 114.28 122.811 114.493 122.954 114.777C123.095 115.131 123.026 115.771 122.811 116.055C122.529 116.409 121.96 116.765 121.535 116.765C121.038 116.835 120.184 116.55 120.043 116.196C119.9 115.912 120.54 114.848 120.54 114.848Z" fill="white"/>
</mask>
<g mask="url(#mask11_57_829)">
<path d="M117.204 111.441H125.941V119.605H117.204V111.441Z" fill="black"/>
</g>
</g>
<mask id="mask12_57_829" style="mask-type:luminance" maskUnits="userSpaceOnUse" x="186" y="69" width="93" height="56">
<path d="M186.199 69.3109H278.001V124.533H186.199V69.3109Z" fill="white"/>
</mask>
<g mask="url(#mask12_57_829)">
<mask id="mask13_57_829" style="mask-type:luminance" maskUnits="userSpaceOnUse" x="186" y="69" width="92" height="56">
<path d="M188.053 107.676C192.171 111.582 193.093 112.363 193.946 112.079C195.366 111.582 196.645 106.328 197.851 105.406C198.349 104.98 198.774 104.909 199.412 104.909C200.194 104.98 201.401 106.044 202.323 106.044C203.104 106.044 204.027 105.619 204.524 105.193C205.021 104.766 205.162 104.199 205.447 103.418C205.872 101.998 206.3 99.3715 206.369 97.3832C206.441 95.5381 206.3 94.4007 205.944 92.0585C205.234 87.4437 200.478 73.7424 201.472 71.3286C201.754 70.6188 202.395 70.1217 202.892 70.3345C204.596 70.9748 206.582 84.4633 208.499 89.0065C209.706 91.8458 210.984 93.7625 212.263 95.4664C213.185 96.745 214.179 97.9518 215.173 98.6617C215.883 99.1587 216.665 99.5842 217.231 99.5842C217.728 99.5126 218.225 99.1587 218.581 98.7312C219.007 98.3057 219.22 97.5959 219.291 96.745C219.504 95.6076 218.864 93.2654 219.22 92.2712C219.504 91.5614 220.142 90.7105 220.498 90.78C220.924 90.8516 220.568 93.7625 221.065 94.3312C221.421 94.7566 221.987 94.8978 222.556 94.8282C223.975 94.5439 227.455 90.3545 228.662 90.285C229.087 90.285 229.513 90.7105 229.656 90.9948C229.726 91.2771 229.3 92.1301 229.372 92.2017C229.441 92.2017 229.726 91.2771 230.01 91.2771C230.579 91.3487 231.43 94.6155 232.352 96.1046C233.277 97.5243 234.625 98.6617 235.619 100.081C236.541 101.501 237.464 102.992 238.174 104.625C238.814 106.185 239.452 107.82 239.593 109.593C239.806 111.582 239.524 114.067 239.027 115.984C238.671 117.688 238.174 119.179 237.323 120.527C236.4 121.946 234.484 123.935 233.559 124.219C233.062 124.36 232.567 124.219 232.352 124.004C232.139 123.792 232.07 123.509 232.07 123.082C232.07 121.805 232.992 119.179 234.412 115.984C237.748 108.174 247.688 83.5408 255.07 77.5758C259.116 74.3111 263.944 75.518 267.708 74.0267C270.973 72.8199 274.806 69.8374 276.438 69.5551C277.007 69.4835 277.504 69.5551 277.717 69.7679C277.93 70.0522 277.858 71.1159 277.576 71.3286C277.291 71.5413 276.297 71.4002 276.085 71.1159C275.872 70.8315 276.013 69.8374 276.297 69.6246C276.582 69.4119 277.361 69.4835 277.645 69.6963C277.858 69.9806 278.001 70.6904 277.645 71.2591C276.866 72.6787 271.754 74.8082 268.346 76.0867C264.725 77.4347 260.395 76.0151 256.562 78.9259C249.392 84.4633 239.949 108.955 236.4 116.835C234.838 120.171 234.484 123.65 233.559 124.219C233.205 124.432 232.78 124.36 232.567 124.147C232.283 124.004 231.998 123.509 232.07 123.082C232.211 122.231 234.484 121.024 235.335 119.745C236.116 118.539 236.541 117.26 236.967 115.771C237.392 114.067 237.677 111.866 237.536 110.09C237.392 108.53 237.11 107.464 236.329 105.619C234.909 102.352 229.441 95.2537 228.378 92.6988C228.022 91.7047 227.668 90.8516 227.952 90.5673C228.165 90.3545 229.372 90.4978 229.513 90.78C229.726 91.136 229.3 92.0585 228.731 92.7683C227.668 94.0468 224.188 96.5322 222.697 96.8861C221.918 97.0293 221.277 96.8861 220.711 96.6017C220.142 96.389 219.573 95.9635 219.22 95.3253C218.651 94.2596 217.941 90.9948 218.51 90.2134C218.794 89.7879 220.001 89.6447 220.498 89.8575C220.995 90.1418 221.208 91.136 221.349 92.0585C221.633 93.4781 221.633 96.1046 221.277 97.5959C220.995 98.8028 220.426 99.7969 219.717 100.435C219.007 101.075 217.941 101.501 217.018 101.501C215.955 101.501 214.676 100.863 213.611 100.153C212.475 99.2999 211.481 97.9518 210.417 96.5322C209.067 94.685 207.719 92.6272 206.512 89.7163C204.596 85.1731 201.472 73.814 201.472 71.5413C201.472 71.0443 201.542 70.8315 201.754 70.6188C201.969 70.4061 202.536 70.1217 202.892 70.3345C204.596 71.4002 207.292 87.0182 208.073 91.9174C208.499 94.4007 208.642 95.6076 208.499 97.5243C208.429 99.7253 207.932 102.779 207.292 104.412C206.938 105.475 206.512 106.185 205.872 106.826C205.234 107.535 204.311 108.317 203.317 108.458C202.11 108.53 200.265 106.4 199.128 106.897C197.639 107.464 196.998 112.079 195.863 113.214C195.225 113.783 194.585 113.995 193.875 114.067C193.165 114.136 192.384 113.995 191.604 113.641C190.538 113.144 189.119 112.007 188.196 111.084C187.343 110.233 186.208 109.027 186.208 108.317C186.208 107.961 186.633 107.464 186.918 107.392C187.202 107.251 188.053 107.676 188.053 107.676Z" fill="white"/>
</mask>
<g mask="url(#mask13_57_829)">
<path d="M183.368 66.7137H280.598V127.128H183.368V66.7137Z" fill="black"/>
</g>
</g>
<mask id="mask14_57_829" style="mask-type:luminance" maskUnits="userSpaceOnUse" x="85" y="115" width="27" height="14">
<path d="M85.1768 115.339H111.21V128.842H85.1768V115.339Z" fill="white"/>
</mask>
<g mask="url(#mask14_57_829)">
<mask id="mask15_57_829" style="mask-type:luminance" maskUnits="userSpaceOnUse" x="85" y="115" width="27" height="14">
<path d="M85.7509 126.774C110.386 115.344 110.883 115.628 111.024 115.912C111.237 116.197 111.167 116.694 110.954 116.907C110.742 117.191 110.101 117.404 109.748 117.332C109.463 117.26 109.107 116.907 109.038 116.622C108.966 116.338 109.179 115.559 109.535 115.415C109.817 115.274 110.811 115.487 111.024 115.841C111.167 116.125 111.024 116.694 110.527 117.26C108.469 119.674 89.6559 128.55 86.6039 128.763C85.8941 128.832 85.397 128.619 85.2538 128.335C85.1127 127.981 85.7509 126.774 85.7509 126.774Z" fill="white"/>
</mask>
<g mask="url(#mask15_57_829)">
<path d="M82.415 112.504H113.969V131.602H82.415V112.504Z" fill="black"/>
</g>
</g>
<mask id="mask16_57_829" style="mask-type:luminance" maskUnits="userSpaceOnUse" x="194" y="76" width="27" height="16">
<path d="M194.192 76.4871H220.249V91.4458H194.192V76.4871Z" fill="white"/>
</mask>
<g mask="url(#mask16_57_829)">
<mask id="mask17_57_829" style="mask-type:luminance" maskUnits="userSpaceOnUse" x="194" y="76" width="27" height="16">
<path d="M194.653 89.5736C219.429 76.5126 219.926 76.7253 220.139 77.0792C220.282 77.3635 220.067 78.1449 219.854 78.2861C219.5 78.4988 218.506 78.4293 218.293 78.1449C218.081 77.8606 218.293 76.7969 218.578 76.5821C218.86 76.3694 219.854 76.6537 220.067 76.9381C220.21 77.294 220.139 77.8606 219.641 78.4293C217.584 80.9126 198.627 91.2775 195.575 91.4208C194.937 91.4924 194.44 91.208 194.297 90.9237C194.156 90.5677 194.653 89.5736 194.653 89.5736Z" fill="white"/>
</mask>
<g mask="url(#mask17_57_829)">
<path d="M191.457 73.6732H222.982V94.2599H191.457V73.6732Z" fill="black"/>
</g>
</g>
</svg>
